<svg xmlns="http://www.w3.org/2000/svg" version="1.1" xmlns:xlink="http://www.w3.org/1999/xlink" xmlns:svgjs="http://svgjs.com/svgjs" width="1600" height="1200" preserveAspectRatio="none" viewBox="0 0 1600 1200"><g mask="url(&quot;#SvgjsMask1006&quot;)" fill="none"><rect width="1600" height="1200" x="0" y="0" fill="url(#SvgjsLinearGradient1007)"></rect><path d="M1600 0L1302.67 0L1600 514.91z" fill="rgba(255, 255, 255, .1)"></path><path d="M1302.67 0L1600 514.91L1600 622.0799999999999L1089.46 0z" fill="rgba(255, 255, 255, .075)"></path><path d="M1089.46 0L1600 622.0799999999999L1600 837.16L653.3800000000001 0z" fill="rgba(255, 255, 255, .05)"></path><path d="M653.3800000000001 0L1600 837.16L1600 1034.59L302.3600000000001 0z" fill="rgba(255, 255, 255, .025)"></path><path d="M0 1200L773.33 1200L0 928.28z" fill="rgba(0, 0, 0, .1)"></path><path d="M0 928.28L773.33 1200L1049.94 1200L0 431.34999999999997z" fill="rgba(0, 0, 0, .075)"></path><path d="M0 431.3499999999999L1049.94 1200L1097.17 1200L0 200.52999999999992z" fill="rgba(0, 0, 0, .05)"></path><path d="M0 200.52999999999997L1097.17 1200L1244.47 1200L0 135.39z" fill="rgba(0, 0, 0, .025)"></path></g><defs><mask id="SvgjsMask1006"><rect width="1600" height="1200" fill="#ffffff"></rect></mask><linearGradient x1="50%" y1="0%" x2="50%" y2="100%" gradientUnits="userSpaceOnUse" id="SvgjsLinearGradient1007"><stop stop-color="rgba(48, 2, 0, 1)" offset="0"></stop><stop stop-color="rgba(48, 2, 0, 1)" offset="1"></stop></linearGradient></defs></svg>