<svg xmlns="http://www.w3.org/2000/svg" version="1.1" xmlns:xlink="http://www.w3.org/1999/xlink" xmlns:svgjs="http://svgjs.com/svgjs" width="800" height="800" preserveAspectRatio="none" viewBox="0 0 800 800"><g mask="url(&quot;#SvgjsMask1018&quot;)" fill="none"><rect width="800" height="800" x="0" y="0" fill="url(#SvgjsLinearGradient1019)"></rect><path d="M800 0L732.13 0L800 202.37z" fill="rgba(255, 255, 255, .1)"></path><path d="M732.13 0L800 202.37L800 330.07L456.14 0z" fill="rgba(255, 255, 255, .075)"></path><path d="M456.14 0L800 330.07L800 620.0899999999999L201.57 0z" fill="rgba(255, 255, 255, .05)"></path><path d="M201.56999999999994 0L800 620.0899999999999L800 718.02L83.19999999999993 0z" fill="rgba(255, 255, 255, .025)"></path><path d="M0 800L12.48 800L0 691.85z" fill="rgba(0, 0, 0, .1)"></path><path d="M0 691.85L12.48 800L125.84 800L0 338z" fill="rgba(0, 0, 0, .075)"></path><path d="M0 338L125.84 800L432.45000000000005 800L0 207.46z" fill="rgba(0, 0, 0, .05)"></path><path d="M0 207.46000000000004L432.45000000000005 800L635.2800000000001 800L0 115.11000000000004z" fill="rgba(0, 0, 0, .025)"></path></g><defs><mask id="SvgjsMask1018"><rect width="800" height="800" fill="#ffffff"></rect></mask><linearGradient x1="50%" y1="0%" x2="50%" y2="100%" gradientUnits="userSpaceOnUse" id="SvgjsLinearGradient1019"><stop stop-color="rgba(48, 2, 0, 1)" offset="0"></stop><stop stop-color="rgba(48, 2, 0, 1)" offset="1"></stop></linearGradient></defs></svg>